<svg xmlns="http://www.w3.org/2000/svg" width="259" height="242" viewBox="0 0 259 242">
  <defs>
    <style>
      .cls-1 {
        fill: #f4cb29;
        fill-rule: evenodd;
      }
    </style>
  </defs>
  <path id="Color_Fill_1" data-name="Color Fill 1" class="cls-1" d="M102,6h55q-3.5,46-7,92c25.1-12.087,56.01-30.791,87-34l2,2c3.042,16.728,16.967,33.834,12,53-28.82,2.746-52.827,17.506-87,18l61,71v2l-39,28c-8.9-.065-9.335-2.365-14-6l-43-70-2,1c-5.595,18.2-32.386,64.554-46,75-18.778-.747-32.406-19.866-46-28v-3l61-68-1-2c-29.984-.451-64.273-10.868-90-20v-1L21,65l2-1c31.376,3.832,58.05,24.393,85,34Q105,52,102,6Z"/>
</svg>
